<?xml version="1.0" encoding="iso-8859-1"?>
<!-- Generator: Adobe Illustrator 16.0.0, SVG Export Plug-In . SVG Version: 6.00 Build 0)  -->
<!DOCTYPE svg PUBLIC "-//W3C//DTD SVG 1.1//EN" "http://www.w3.org/Graphics/SVG/1.1/DTD/svg11.dtd">
<svg version="1.1" id="Capa_1" xmlns="http://www.w3.org/2000/svg" xmlns:xlink="http://www.w3.org/1999/xlink" x="0px" y="0px"
	 width="592.381px" height="592.381px" viewBox="0 0 592.381 592.381" style="enable-background:new 0 0 592.381 592.381;"
	 xml:space="preserve">
<g>
	<g>
		<g>
			<path d="M57.645,591.881c0.051,0,0.123,0,0.181,0c0.019,0,0.038,0,0.057,0c2.262-0.01,4.106-0.169,5.296-0.287l154.786-15.373
				c11.862-1.178,22.962-5.748,32.102-13.217c8.463-6.916,14.892-16.042,18.591-26.394c3.699-10.352,4.51-21.485,2.347-32.199
				c-2.336-11.569-8.026-22.14-16.456-30.568l-9.312-9.312L464.53,245.236l9.312,9.312c11.374,11.375,26.441,17.639,42.425,17.639
				c14.367,0,28.298-5.133,39.227-14.453c11.819-10.082,19.181-24.206,20.727-39.771l15.375-154.806
				c0.118-1.186,0.275-3.025,0.285-5.276c0.062-15.307-5.854-29.709-16.659-40.558C564.416,6.475,550.038,0.5,534.736,0.5h-0.017
				c-0.011,0-0.021,0-0.033,0c-2.457,0.002-4.459,0.183-5.75,0.318L374.876,16.987c-11.822,1.241-22.872,5.854-31.956,13.337
				c-8.415,6.934-14.799,16.062-18.459,26.398c-3.661,10.335-4.446,21.446-2.271,32.131c2.348,11.534,8.031,22.072,16.436,30.478
				l8.52,8.519L127.851,347.144l-8.519-8.519c-11.375-11.374-26.441-17.639-42.426-17.639c-14.311,0-28.199,5.097-39.107,14.353
				c-11.794,10.008-19.185,24.049-20.811,39.536L0.818,528.942c-0.136,1.294-0.314,3.285-0.318,5.728
				c-0.017,15.271,5.92,29.635,16.719,40.446C28.017,585.927,42.374,591.881,57.645,591.881z M43.423,533.414l16.17-154.066
				c1.002-9.553,9.017-15.521,17.312-15.521c4.278,0,8.631,1.588,12.134,5.091l27.993,27.993c2.988,2.987,6.903,4.48,10.819,4.48
				s7.832-1.493,10.819-4.48l258.24-258.242c5.976-5.975,5.976-15.662,0-21.637L368.918,89.04
				c-10.294-10.294-4.05-27.926,10.431-29.446l154.066-16.17c0.434-0.045,0.87-0.083,1.306-0.083c0.005,0,0.011,0,0.017,0
				c7.907,0,14.336,6.448,14.304,14.363c-0.002,0.408-0.035,0.815-0.076,1.221l-15.374,154.807
				c-0.954,9.602-8.996,15.617-17.323,15.617c-4.275,0-8.629-1.587-12.133-5.092l-28.786-28.786
				c-2.987-2.988-6.903-4.481-10.818-4.481c-3.916,0-7.831,1.494-10.819,4.481l-258.24,258.241c-5.975,5.976-5.975,15.663,0,21.638
				l28.786,28.786c10.327,10.326,4.007,28.012-10.525,29.455L58.924,548.965c-0.405,0.04-0.813,0.074-1.221,0.076
				c-0.02,0-0.04,0-0.059,0c-7.894,0-14.313-6.426-14.304-14.321C43.341,534.283,43.378,533.848,43.423,533.414z"/>
			<path d="M57.884,592.381h-0.24c-15.404,0-29.886-6.006-40.78-16.911C5.972,564.564-0.017,550.074,0,534.669
				c0.003-2.474,0.185-4.482,0.321-5.778L16.49,374.823c1.639-15.616,9.091-29.774,20.984-39.865
				c10.998-9.332,25.001-14.472,39.431-14.472c16.118,0,31.311,6.316,42.78,17.785l8.166,8.165l218.587-218.586l-8.166-8.166
				c-8.475-8.475-14.205-19.102-16.572-30.731c-2.192-10.774-1.4-21.978,2.29-32.398c3.69-10.42,10.126-19.624,18.612-26.617
				c9.161-7.547,20.303-12.198,32.223-13.449L528.885,0.321c1.301-0.137,3.318-0.319,5.802-0.321
				c15.485,0,29.989,6.027,40.89,16.971c10.898,10.943,16.867,25.473,16.805,40.913c-0.01,2.285-0.169,4.132-0.287,5.324
				l-15.375,154.806c-1.56,15.694-8.981,29.936-20.9,40.102c-11.02,9.397-25.065,14.572-39.551,14.572
				c-16.117,0-31.31-6.316-42.778-17.786l-8.959-8.959L245.943,464.53l8.959,8.959c8.499,8.498,14.236,19.156,16.592,30.823
				c2.181,10.803,1.363,22.029-2.367,32.466s-10.211,19.64-18.745,26.612c-9.216,7.531-20.409,12.141-32.369,13.328L63.228,592.091
				C62.023,592.211,60.158,592.371,57.884,592.381z M76.905,321.486c-14.193,0-27.966,5.055-38.784,14.233
				c-11.695,9.925-19.024,23.849-20.637,39.207L1.315,528.994c-0.133,1.274-0.312,3.249-0.315,5.677
				c-0.017,15.137,5.869,29.375,16.572,40.092c10.705,10.717,24.936,16.618,40.072,16.618h0.181l0.057,0.5l-0.002-0.5
				c2.231-0.01,4.064-0.167,5.249-0.284l154.786-15.373c11.763-1.168,22.771-5.7,31.835-13.106
				c8.393-6.858,14.768-15.91,18.437-26.175c3.668-10.266,4.473-21.308,2.328-31.933c-2.317-11.473-7.96-21.955-16.319-30.313
				l-9.666-9.666L464.53,244.529l9.666,9.666c11.28,11.28,26.221,17.493,42.071,17.493c14.247,0,28.063-5.09,38.902-14.333
				c11.721-9.998,19.021-24.004,20.554-39.44l15.375-154.806c0.116-1.171,0.272-2.987,0.282-5.229
				c0.061-15.172-5.804-29.45-16.514-40.203C564.156,6.923,549.904,1,534.736,1c-2.485,0.002-4.468,0.181-5.747,0.315
				L374.928,17.484c-11.723,1.231-22.682,5.805-31.689,13.226c-8.347,6.877-14.677,15.93-18.306,26.179
				c-3.631,10.25-4.41,21.268-2.253,31.865c2.327,11.436,7.964,21.888,16.299,30.224l8.873,8.873l-220.001,220l-8.873-8.872
				C107.697,327.698,92.756,321.486,76.905,321.486z M57.706,549.541c-4.013,0-7.731-1.544-10.531-4.347s-4.339-6.523-4.334-10.476
				c0-0.479,0.043-0.954,0.086-1.356l16.17-154.066c0.955-9.104,8.61-15.969,17.807-15.969c4.676,0,9.112,1.86,12.49,5.237
				l27.993,27.993c2.795,2.795,6.512,4.334,10.465,4.334c3.954,0,7.67-1.539,10.466-4.334l258.24-258.242
				c2.796-2.795,4.335-6.512,4.335-10.465s-1.539-7.67-4.335-10.465l-27.992-27.993c-4.9-4.9-6.507-12.002-4.192-18.534
				c2.313-6.532,8.032-11.039,14.925-11.763l154.066-16.169c0.429-0.045,0.891-0.086,1.356-0.086c3.978,0,7.701,1.549,10.503,4.362
				c2.801,2.812,4.335,6.543,4.318,10.503c-0.002,0.424-0.036,0.848-0.079,1.269L534.088,213.78
				c-1.036,10.436-9.955,16.067-17.82,16.067c-4.675,0-9.109-1.86-12.486-5.238l-28.786-28.786
				c-2.795-2.795-6.512-4.335-10.465-4.335s-7.67,1.54-10.466,4.335l-258.24,258.241c-2.795,2.796-4.335,6.513-4.335,10.466
				s1.54,7.67,4.335,10.465l28.786,28.786c4.916,4.915,6.516,12.034,4.177,18.58s-8.089,11.039-15.006,11.726L58.974,549.462
				C58.553,549.504,58.129,549.539,57.706,549.541z M76.903,364.327c-7.383,0-15.785,5.282-16.812,15.072L43.92,533.466
				c-0.039,0.377-0.08,0.821-0.08,1.255c-0.004,3.685,1.431,7.153,4.042,9.767c2.611,2.614,6.078,4.054,9.762,4.054
				c0.448-0.002,0.841-0.035,1.23-0.074l154.807-15.375c6.528-0.648,11.956-4.889,14.163-11.066
				c2.208-6.179,0.697-12.898-3.942-17.537l-28.786-28.786c-2.984-2.984-4.628-6.951-4.628-11.172s1.644-8.188,4.628-11.173
				l258.24-258.241c2.984-2.984,6.953-4.628,11.173-4.628c4.221,0,8.188,1.644,11.172,4.628l28.786,28.786
				c3.188,3.189,7.372,4.945,11.779,4.945c7.426,0,15.847-5.315,16.826-15.166l15.373-154.807c0.04-0.391,0.072-0.782,0.074-1.174
				c0.015-3.692-1.415-7.17-4.027-9.793c-2.612-2.623-6.084-4.068-9.776-4.068c-0.438,0-0.868,0.039-1.271,0.081L379.4,60.091
				c-6.505,0.683-11.902,4.937-14.086,11.102c-2.184,6.166-0.668,12.869,3.957,17.494l27.992,27.993
				c2.984,2.984,4.628,6.952,4.628,11.172s-1.644,8.188-4.628,11.172l-258.24,258.242c-2.984,2.983-6.952,4.627-11.173,4.627
				c-4.22,0-8.188-1.644-11.172-4.627l-27.993-27.993c-3.189-3.188-7.373-4.944-11.781-4.944H76.903z"/>
		</g>
	</g>
</g>
<g>
</g>
<g>
</g>
<g>
</g>
<g>
</g>
<g>
</g>
<g>
</g>
<g>
</g>
<g>
</g>
<g>
</g>
<g>
</g>
<g>
</g>
<g>
</g>
<g>
</g>
<g>
</g>
<g>
</g>
</svg>
