<?xml version="1.0" encoding="iso-8859-1"?>
<!-- Generator: Adobe Illustrator 19.0.0, SVG Export Plug-In . SVG Version: 6.00 Build 0)  -->
<svg version="1.1" id="Layer_1" xmlns="http://www.w3.org/2000/svg" xmlns:xlink="http://www.w3.org/1999/xlink" x="0px" y="0px"
	 viewBox="0 0 512 512" style="enable-background:new 0 0 512 512;" xml:space="preserve">
<g>
	<g>
		<path d="M46.261,0v512h419.478V0H46.261z M450.531,496.792H61.469V15.208h389.062V496.792z"/>
	</g>
</g>
<g>
	<g>
		<path d="M106.477,60.217v361.457h299.047V60.217H106.477z M390.316,406.466H121.685V75.425h268.631V406.466z"/>
	</g>
</g>
<g>
	<g>
		<rect x="154.625" y="107.358" width="202.752" height="15.208"/>
	</g>
</g>
<g>
	<g>
		<rect x="154.625" y="149.352" width="202.752" height="15.208"/>
	</g>
</g>
<g>
	<g>
		<rect x="154.625" y="191.346" width="202.752" height="15.208"/>
	</g>
</g>
<g>
	<g>
		<rect x="154.625" y="233.34" width="202.752" height="15.208"/>
	</g>
</g>
<g>
	<g>
		<rect x="154.625" y="275.334" width="202.752" height="15.208"/>
	</g>
</g>
<g>
	<g>
		<rect x="154.625" y="317.328" width="202.752" height="15.208"/>
	</g>
</g>
<g>
	<g>
		<rect x="225.585" y="359.323" width="131.792" height="15.208"/>
	</g>
</g>
<g>
	<g>
		<rect x="154.625" y="359.323" width="50.688" height="15.208"/>
	</g>
</g>
<g>
	<g>
		<rect x="215.446" y="451.625" width="81.119" height="15.208"/>
	</g>
</g>
<g>
</g>
<g>
</g>
<g>
</g>
<g>
</g>
<g>
</g>
<g>
</g>
<g>
</g>
<g>
</g>
<g>
</g>
<g>
</g>
<g>
</g>
<g>
</g>
<g>
</g>
<g>
</g>
<g>
</g>
</svg>
